# xmcd
#
# Track frame offsets:
#	150
#	20627
#	41576
#	60905
#	83053
#	97727
#	126753
#	141305
#	157947
#	182552
#	195002
#	217844
#
# Disc length: 3110 seconds
#
# Revision: 2
# Processed by: cddbd v1.5PL3 Copyright (c) Steve Scherf et al.
# Submitted via: EasyCDDAExtractor 7.0.5.4
#
DISCID=8a0c240c
DTITLE=The King Ivory Band - Nighthawkin'
DYEAR=1998
DGENRE=Blues
TTITLE0=You Can't Run Away from the Blues
TTITLE1=A Preacher's Dream
TTITLE2=Home Cookin'
TTITLE3=Jailbird Blues
TTITLE4=Blues Shoes
TTITLE5=Nighthawkin'
TTITLE6=Shave 'n a Haircut - Two Bits
TTITLE7=Pioneers
TTITLE8=This Heart's A Stone
TTITLE9=A Little Bit of Love
TTITLE10=The Blues Kept Right on Walking
TTITLE11=From Dusk 'Till Dawn
EXTD=
EXTT0=
EXTT1=
EXTT2=
EXTT3=
EXTT4=
EXTT5=
EXTT6=
EXTT7=
EXTT8=
EXTT9=
EXTT10=
EXTT11=
PLAYORDER=
